<svg width="24" height="23" viewBox="0 0 24 23" fill="none" xmlns="http://www.w3.org/2000/svg">
<path d="M5.30831 8.55835H0.974976V21.5583H5.30831V8.55835Z" stroke="black" stroke-width="1.95" stroke-linecap="round" stroke-linejoin="round"/>
<path d="M16.1416 7.47501C17.8655 7.47501 19.5188 8.15983 20.7378 9.37881C21.9568 10.5978 22.6416 12.2511 22.6416 13.975V21.5583H18.3083V13.975C18.3083 13.4004 18.08 12.8493 17.6737 12.4429C17.2673 12.0366 16.7162 11.8083 16.1416 11.8083C15.567 11.8083 15.0159 12.0366 14.6095 12.4429C14.2032 12.8493 13.9749 13.4004 13.9749 13.975V21.5583H9.6416V13.975C9.6416 12.2511 10.3264 10.5978 11.5454 9.37881C12.7644 8.15983 14.4177 7.47501 16.1416 7.47501V7.47501Z" stroke="black" stroke-width="1.95" stroke-linecap="round" stroke-linejoin="round"/>
<path d="M3.14164 5.30834C4.33826 5.30834 5.30831 4.33829 5.30831 3.14167C5.30831 1.94506 4.33826 0.975006 3.14164 0.975006C1.94503 0.975006 0.974976 1.94506 0.974976 3.14167C0.974976 4.33829 1.94503 5.30834 3.14164 5.30834Z" stroke="black" stroke-width="1.95" stroke-linecap="round" stroke-linejoin="round"/>
</svg>
