<svg width="22" height="22" viewBox="0 0 22 22" fill="none" xmlns="http://www.w3.org/2000/svg">
<path d="M12.8599 4.66676C13.7553 4.84144 14.5781 5.27933 15.2232 5.92437C15.8682 6.5694 16.3061 7.39225 16.4808 8.28759M12.8599 1.00009C14.7201 1.20674 16.4547 2.03975 17.779 3.36235C19.1033 4.68495 19.9384 6.41852 20.1474 8.27842M19.2308 15.5934V18.3434C19.2318 18.5987 19.1795 18.8514 19.0772 19.0853C18.975 19.3192 18.825 19.5292 18.6368 19.7018C18.4487 19.8744 18.2266 20.0058 17.9848 20.0876C17.743 20.1694 17.4867 20.1997 17.2324 20.1768C14.4117 19.8703 11.7022 18.9064 9.32161 17.3626C7.10678 15.9552 5.229 14.0774 3.82161 11.8626C2.27242 9.4712 1.30833 6.7485 1.00744 3.91509C0.984533 3.6616 1.01466 3.40612 1.0959 3.16491C1.17714 2.92371 1.30771 2.70206 1.47931 2.51408C1.6509 2.3261 1.85976 2.17591 2.09258 2.07307C2.3254 1.97023 2.57709 1.917 2.83161 1.91676H5.58161C6.02647 1.91238 6.45775 2.06991 6.79505 2.36C7.13236 2.65008 7.35268 3.05292 7.41494 3.49342C7.53101 4.37349 7.74627 5.23759 8.05661 6.06926C8.17994 6.39736 8.20663 6.75393 8.13352 7.09673C8.06041 7.43953 7.89056 7.75419 7.64411 8.00343L6.47994 9.16759C7.78487 11.4625 9.68502 13.3627 11.9799 14.6676L13.1441 13.5034C13.3933 13.257 13.708 13.0871 14.0508 13.014C14.3936 12.9409 14.7502 12.9676 15.0783 13.0909C15.9099 13.4013 16.774 13.6165 17.6541 13.7326C18.0994 13.7954 18.5061 14.0197 18.7968 14.3628C19.0875 14.7059 19.2419 15.1439 19.2308 15.5934Z" stroke="black" stroke-width="2" stroke-linecap="round" stroke-linejoin="round"/>
</svg>
