<svg width="32" height="32" viewBox="0 0 32 32" fill="none" xmlns="http://www.w3.org/2000/svg">
<g filter="url(#filter0_ii_3511_33)">
<rect width="32" height="32" rx="3.74675" fill="url(#paint0_linear_3511_33)"/>
<path d="M27.747 6.40682V25.5895C27.747 26.7184 26.8307 27.6394 25.6862 27.6394H21.9327C21.5684 27.6394 21.2464 27.443 21.0451 27.1398C20.6444 26.5353 16.7548 21.3869 15.1311 19.0033C14.9969 18.8069 15.1388 18.54 15.3784 18.54C15.5854 18.5495 15.7925 18.5571 16.0014 18.5667C16.2104 18.5743 16.8161 18.5285 17.1689 18.4904C19.1223 18.2749 20.077 17.2758 20.077 17.2758C20.2572 17.0774 20.9358 16.309 20.932 15.1592C20.9301 14.118 20.3626 13.4011 20.2016 13.2047C19.362 12.1807 18.1964 12.0072 17.2513 11.8871C16.6225 11.807 15.8174 11.7745 14.8972 11.7765C14.8972 11.7765 10.4957 11.7745 10.4152 11.7745C10.3347 11.7745 10.2638 11.7383 10.2178 11.6754L8.9161 9.97069C8.79725 9.81051 8.91227 9.5836 9.11356 9.5836L15.6966 9.60648C16.3235 9.60839 16.9503 9.63127 17.5734 9.69038C17.9855 9.72852 18.4054 9.78763 18.8501 9.90204C20.1978 10.2491 21.371 11.0786 22.1627 12.2169C22.1627 12.2188 22.1666 12.2207 22.1666 12.2246C23.0695 13.5193 23.0522 14.8541 23.0522 15.1611C23.0522 15.4738 23.0254 16.7361 22.2049 18.0366C21.3173 19.4457 19.9236 19.9758 19.2488 20.197C19.1242 20.2371 19.0782 20.3877 19.1587 20.4907C20.2649 21.917 21.4803 23.4463 22.5749 24.863C22.7129 25.0556 22.8874 25.1738 23.1136 25.1738H24.4459C24.8983 25.1738 25.2683 24.8115 25.2683 24.3558V7.63863C25.2683 7.18862 24.9041 6.8206 24.4459 6.8206H7.5301C7.07768 6.8206 6.70769 7.1829 6.70769 7.63863V24.3539C6.70769 24.802 7.07193 25.1719 7.5301 25.1719H9.79602C10.1372 25.1719 10.4152 24.8974 10.4152 24.556V14.3583C10.4152 14.1943 10.5494 14.0608 10.7143 14.0608H17.096C17.8667 14.0437 18.321 14.6386 18.3153 15.1801C18.3153 15.7446 17.8839 16.2461 17.0558 16.2499H13.053C12.8882 16.2499 12.754 16.3834 12.754 16.5473L12.8364 26.6135C12.8364 27.1855 12.3706 27.6413 11.8031 27.6413H6.3147C5.17983 27.6413 4.25391 26.7298 4.25391 25.5914V6.40682C4.25391 5.27798 5.17024 4.35889 6.3147 4.35889H25.6881C26.8249 4.35889 27.7489 5.27035 27.7489 6.40682H27.747Z" fill="url(#paint1_linear_3511_33)"/>
</g>
<defs>
<filter id="filter0_ii_3511_33" x="0" y="0" width="32" height="32.8505" filterUnits="userSpaceOnUse" color-interpolation-filters="sRGB">
<feFlood flood-opacity="0" result="BackgroundImageFix"/>
<feBlend mode="normal" in="SourceGraphic" in2="BackgroundImageFix" result="shape"/>
<feColorMatrix in="SourceAlpha" type="matrix" values="0 0 0 0 0 0 0 0 0 0 0 0 0 0 0 0 0 0 127 0" result="hardAlpha"/>
<feOffset dy="0.850498"/>
<feGaussianBlur stdDeviation="1.3289"/>
<feComposite in2="hardAlpha" operator="arithmetic" k2="-1" k3="1"/>
<feColorMatrix type="matrix" values="0 0 0 0 1 0 0 0 0 1 0 0 0 0 1 0 0 0 0.25 0"/>
<feBlend mode="normal" in2="shape" result="effect1_innerShadow_3511_33"/>
<feColorMatrix in="SourceAlpha" type="matrix" values="0 0 0 0 0 0 0 0 0 0 0 0 0 0 0 0 0 0 127 0" result="hardAlpha"/>
<feOffset dy="0.318937"/>
<feGaussianBlur stdDeviation="0.159468"/>
<feComposite in2="hardAlpha" operator="arithmetic" k2="-1" k3="1"/>
<feColorMatrix type="matrix" values="0 0 0 0 1 0 0 0 0 1 0 0 0 0 1 0 0 0 0.4 0"/>
<feBlend mode="normal" in2="effect1_innerShadow_3511_33" result="effect2_innerShadow_3511_33"/>
</filter>
<linearGradient id="paint0_linear_3511_33" x1="16" y1="0" x2="16" y2="32" gradientUnits="userSpaceOnUse">
<stop stop-color="#5C50FF"/>
<stop offset="1" stop-color="#3A2AD9"/>
</linearGradient>
<linearGradient id="paint1_linear_3511_33" x1="16.0014" y1="4.35889" x2="16.0014" y2="27.6413" gradientUnits="userSpaceOnUse">
<stop stop-color="white"/>
<stop offset="1" stop-color="white" stop-opacity="0.8"/>
</linearGradient>
</defs>
</svg>
