<svg width="20" height="20" viewBox="0 0 20 20" fill="none" xmlns="http://www.w3.org/2000/svg">
<path d="M4 2C3.46957 2 2.96086 2.21071 2.58579 2.58579C2.21071 2.96086 2 3.46957 2 4V16C2 16.5304 2.21071 17.0391 2.58579 17.4142C2.96086 17.7893 3.46957 18 4 18H16C16.5304 18 17.0391 17.7893 17.4142 17.4142C17.7893 17.0391 18 16.5304 18 16V4C18 3.46957 17.7893 2.96086 17.4142 2.58579C17.0391 2.21071 16.5304 2 16 2H4ZM4 0H16C17.0609 0 18.0783 0.421427 18.8284 1.17157C19.5786 1.92172 20 2.93913 20 4V16C20 17.0609 19.5786 18.0783 18.8284 18.8284C18.0783 19.5786 17.0609 20 16 20H4C2.93913 20 1.92172 19.5786 1.17157 18.8284C0.421427 18.0783 0 17.0609 0 16V4C0 2.93913 0.421427 1.92172 1.17157 1.17157C1.92172 0.421427 2.93913 0 4 0Z" fill="black"/>
<path d="M15.25 4C15.5815 4 15.8995 4.1317 16.1339 4.36612C16.3683 4.60054 16.5 4.91848 16.5 5.25C16.5 5.58152 16.3683 5.89946 16.1339 6.13388C15.8995 6.3683 15.5815 6.5 15.25 6.5C14.9185 6.5 14.6005 6.3683 14.3661 6.13388C14.1317 5.89946 14 5.58152 14 5.25C14 4.91848 14.1317 4.60054 14.3661 4.36612C14.6005 4.1317 14.9185 4 15.25 4ZM10 5.5C11.3261 5.5 12.5979 6.02678 13.5355 6.96447C14.4732 7.90215 15 9.17392 15 10.5C15 11.8261 14.4732 13.0979 13.5355 14.0355C12.5979 14.9732 11.3261 15.5 10 15.5C8.67392 15.5 7.40215 14.9732 6.46447 14.0355C5.52678 13.0979 5 11.8261 5 10.5C5 9.17392 5.52678 7.90215 6.46447 6.96447C7.40215 6.02678 8.67392 5.5 10 5.5ZM10 7.5C9.20435 7.5 8.44129 7.81607 7.87868 8.37868C7.31607 8.94129 7 9.70435 7 10.5C7 11.2956 7.31607 12.0587 7.87868 12.6213C8.44129 13.1839 9.20435 13.5 10 13.5C10.7956 13.5 11.5587 13.1839 12.1213 12.6213C12.6839 12.0587 13 11.2956 13 10.5C13 9.70435 12.6839 8.94129 12.1213 8.37868C11.5587 7.81607 10.7956 7.5 10 7.5Z" fill="black"/>
</svg>
