<svg width="256" height="256" viewBox="0 0 256 256" fill="none" xmlns="http://www.w3.org/2000/svg">
<g filter="url(#filter0_ii_1164_180)">
<rect width="256" height="256" rx="29.974" fill="url(#paint0_linear_1164_180)"/>
<path d="M221.964 51.2546V204.716C221.964 213.747 214.634 221.115 205.478 221.115H175.45C172.536 221.115 169.959 219.544 168.349 217.118C165.144 212.283 134.027 171.095 121.037 152.027C119.963 150.455 121.098 148.32 123.015 148.32C124.672 148.396 126.328 148.457 128 148.533C129.671 148.594 134.517 148.228 137.339 147.923C152.967 146.199 160.604 138.206 160.604 138.206C162.046 136.62 167.475 130.472 167.444 121.273C167.429 112.944 162.889 107.209 161.601 105.637C154.884 97.4456 145.56 96.0575 137.999 95.0964C132.969 94.4557 126.527 94.1964 119.166 94.2116C119.166 94.2116 83.9541 94.1964 83.31 94.1964C82.6659 94.1964 82.0984 93.9065 81.7304 93.4031L71.3171 79.7655C70.3663 78.4841 71.2864 76.6688 72.8967 76.6688L125.561 76.8519C130.576 76.8671 135.591 77.0502 140.575 77.5231C143.873 77.8282 147.231 78.3011 150.789 79.2163C161.57 81.9927 170.956 88.6284 177.29 97.7355C177.29 97.7507 177.321 97.766 177.321 97.7965C184.544 108.154 184.406 118.833 184.406 121.289C184.406 123.79 184.191 133.889 177.627 144.293C170.527 155.566 159.377 159.807 153.979 161.576C152.982 161.896 152.614 163.102 153.258 163.925C162.107 175.336 171.83 187.57 180.587 198.904C181.692 200.445 183.087 201.391 184.897 201.391H195.555C199.175 201.391 202.135 198.492 202.135 194.846V61.1091C202.135 57.509 199.221 54.5648 195.555 54.5648H60.2291C56.6097 54.5648 53.6498 57.4632 53.6498 61.1091V194.831C53.6498 198.416 56.5637 201.375 60.2291 201.375H78.3564C81.0862 201.375 83.31 199.179 83.31 196.448V114.866C83.31 113.555 84.3835 112.487 85.7024 112.487H136.757C142.922 112.349 146.556 117.109 146.51 121.441C146.51 125.957 143.06 129.969 136.434 129.999H104.413C103.094 129.999 102.02 131.067 102.02 132.379L102.68 212.908C102.68 217.484 98.9529 221.13 94.4134 221.13H50.5059C41.4269 221.13 34.0195 213.839 34.0195 204.732V51.2546C34.0195 42.2238 41.3502 34.8711 50.5059 34.8711H205.493C214.588 34.8711 221.98 42.1628 221.98 51.2546H221.964Z" fill="url(#paint1_linear_1164_180)"/>
</g>
<defs>
<filter id="filter0_ii_1164_180" x="0" y="0" width="256" height="262.804" filterUnits="userSpaceOnUse" color-interpolation-filters="sRGB">
<feFlood flood-opacity="0" result="BackgroundImageFix"/>
<feBlend mode="normal" in="SourceGraphic" in2="BackgroundImageFix" result="shape"/>
<feColorMatrix in="SourceAlpha" type="matrix" values="0 0 0 0 0 0 0 0 0 0 0 0 0 0 0 0 0 0 127 0" result="hardAlpha"/>
<feOffset dy="6.80399"/>
<feGaussianBlur stdDeviation="10.6312"/>
<feComposite in2="hardAlpha" operator="arithmetic" k2="-1" k3="1"/>
<feColorMatrix type="matrix" values="0 0 0 0 1 0 0 0 0 1 0 0 0 0 1 0 0 0 0.25 0"/>
<feBlend mode="normal" in2="shape" result="effect1_innerShadow_1164_180"/>
<feColorMatrix in="SourceAlpha" type="matrix" values="0 0 0 0 0 0 0 0 0 0 0 0 0 0 0 0 0 0 127 0" result="hardAlpha"/>
<feOffset dy="2.5515"/>
<feGaussianBlur stdDeviation="1.27575"/>
<feComposite in2="hardAlpha" operator="arithmetic" k2="-1" k3="1"/>
<feColorMatrix type="matrix" values="0 0 0 0 1 0 0 0 0 1 0 0 0 0 1 0 0 0 0.4 0"/>
<feBlend mode="normal" in2="effect1_innerShadow_1164_180" result="effect2_innerShadow_1164_180"/>
</filter>
<linearGradient id="paint0_linear_1164_180" x1="128" y1="0" x2="128" y2="256" gradientUnits="userSpaceOnUse">
<stop stop-color="#5C50FF"/>
<stop offset="1" stop-color="#3A2AD9"/>
</linearGradient>
<linearGradient id="paint1_linear_1164_180" x1="128" y1="34.8711" x2="128" y2="221.13" gradientUnits="userSpaceOnUse">
<stop stop-color="white"/>
<stop offset="1" stop-color="white" stop-opacity="0.65"/>
</linearGradient>
</defs>
</svg>
